<?xml version="1.0" standalone="no"?>
<!DOCTYPE svg PUBLIC "-//W3C//DTD SVG 20010904//EN"
 "http://www.w3.org/TR/2001/REC-SVG-20010904/DTD/svg10.dtd">
<svg version="1.0" xmlns="http://www.w3.org/2000/svg"
 width="892.000000pt" height="826.000000pt" viewBox="0 0 892.000000 826.000000"
 preserveAspectRatio="xMidYMid meet">

<g transform="translate(0.000000,826.000000) scale(0.100000,-0.100000)"
fill="#000000" stroke="none">
<path d="M3705 7249 c-385 -62 -661 -147 -960 -297 -501 -250 -896 -596 -1205
-1057 -280 -419 -450 -894 -505 -1415 -21 -194 -22 -3068 -1 -3145 24 -94 102
-186 190 -226 51 -23 163 -25 226 -3 86 30 171 116 202 204 10 27 14 329 18
1285 l5 1249 900 1 900 0 7 -60 c4 -33 10 -597 12 -1253 l5 -1193 27 -59 c31
-70 112 -151 181 -182 65 -28 177 -22 248 14 64 33 123 92 155 154 l25 49 0
2860 0 2860 -22 41 c-27 51 -114 127 -176 154 -56 25 -150 32 -232 19z m-220
-851 c3 -79 5 -204 3 -278 l-3 -135 -392 -2 -393 -1 -40 -32 c-22 -17 -38 -36
-34 -41 3 -5 187 -9 435 -9 l429 0 -2 -202 -3 -203 -370 -2 c-203 -2 -378 0
-387 3 -14 4 -18 17 -18 59 0 43 -4 56 -19 65 -11 6 -90 10 -185 10 l-165 0
-74 -97 c-83 -111 -158 -233 -151 -245 3 -4 133 -8 288 -8 218 0 286 3 294 13
6 7 12 35 14 62 l3 50 388 3 387 2 0 -205 0 -205 -387 2 -388 3 -5 53 c-3 31
-12 57 -20 62 -9 6 -159 10 -343 10 l-328 0 -20 -47 c-36 -81 -109 -277 -109
-290 0 -17 770 -19 801 -3 15 9 19 22 19 65 0 48 3 55 23 60 12 3 186 4 387 3
l365 -3 0 -210 0 -210 -835 1 c-844 2 -943 3 -955 16 -10 10 31 210 70 349 54
187 150 411 228 536 15 24 27 45 27 48 0 11 98 151 175 251 89 116 285 311
406 406 164 127 373 252 551 328 116 50 277 106 314 109 8 1 14 -44 19 -141z"/>
<path d="M4971 7242 c-59 -23 -136 -93 -169 -156 l-27 -51 0 -2850 0 -2850 22
-48 c28 -60 113 -146 174 -175 54 -26 123 -28 261 -8 757 114 1465 525 1949
1131 426 534 665 1196 681 1890 4 144 -13 194 -86 263 -61 58 -111 85 -184
101 -37 8 -347 11 -1036 11 -541 0 -1017 3 -1059 6 l-77 7 0 1232 c0 1203 0
1234 -20 1297 -16 54 -29 74 -75 117 -76 72 -145 101 -238 100 -41 0 -91 -8
-116 -17z m2203 -3464 c-7 -87 -54 -288 -96 -407 -125 -358 -302 -642 -571
-918 -194 -198 -394 -347 -639 -473 -117 -61 -317 -140 -353 -140 -14 0 -41
-7 -60 -14 l-35 -15 0 1020 0 1019 880 0 880 0 -6 -72z"/>
<path d="M6802 7091 c-11 -7 -11 -37 -1 -172 12 -168 6 -373 -11 -394 -6 -7
-41 -15 -78 -18 -314 -26 -540 -204 -630 -497 -77 -251 1 -555 195 -760 53
-57 82 -78 166 -119 134 -65 214 -85 352 -85 137 -1 240 21 355 76 194 92 363
339 400 582 47 312 -132 635 -410 744 -66 26 -173 52 -216 52 -56 0 -62 13
-53 120 10 111 -4 400 -21 448 -12 32 -24 38 -48 23z m-296 -1129 c13 -9 34
-46 34 -62 0 -19 -48 -60 -70 -60 -27 0 -70 43 -70 70 0 43 69 77 106 52z
m712 -22 c43 -41 13 -110 -47 -110 -30 0 -71 38 -71 65 0 7 9 24 21 39 25 32
66 34 97 6z m-609 -194 c59 -49 101 -61 221 -61 111 0 141 9 203 61 35 29 58
30 82 4 41 -46 -25 -114 -147 -151 -57 -18 -88 -20 -176 -17 -93 4 -115 8
-172 35 -98 46 -140 104 -104 144 25 27 46 24 93 -15z"/>
<path d="M7130 7034 c-148 -54 -206 -151 -156 -261 19 -44 79 -88 161 -119 68
-26 235 -26 320 0 136 42 265 117 265 156 0 22 -13 32 -70 53 -25 10 -72 38
-105 63 -33 25 -93 62 -134 82 -63 30 -87 36 -155 39 -57 2 -94 -2 -126 -13z
m93 -169 c83 -20 184 -37 244 -41 78 -5 103 -10 108 -22 10 -28 -11 -33 -132
-33 -164 1 -392 46 -414 83 -11 18 9 48 32 48 11 0 84 -16 162 -35z"/>
</g>
</svg>
